<svg width="131" height="98" viewBox="0 0 131 98" fill="none" xmlns="http://www.w3.org/2000/svg">
<path d="M65.5 98C101.675 98 131 96.2091 131 94C131 91.7909 101.675 90 65.5 90C29.3253 90 0 91.7909 0 94C0 96.2091 29.3253 98 65.5 98Z" fill="#E6E6E6"/>
<path d="M98.0413 80.0176C97.8575 80.0201 97.6738 80.0226 97.4876 80.0226C97.3014 80.0226 97.1176 80.0201 96.9339 80.0176C87.1941 79.7966 80.1347 73.7256 81.9316 67.3559L86.3133 51.8168L87.4206 47.885L107.051 48.2189L108.244 52.0654L112.94 67.2052C114.929 73.6101 107.869 79.7966 98.0413 80.0176Z" fill="#3F3D56"/>
<path opacity="0.2" d="M108.244 52.0654C104.897 53.9742 101.1 54.9574 97.2448 54.9137C93.3897 54.87 89.616 53.801 86.3132 51.8168L87.4206 47.885L107.051 48.2189L108.244 52.0654Z" fill="black"/>
<path d="M107.416 67.8714C108.264 64.7185 111.051 60.1702 118.867 54.6863C132.498 45.1209 124.367 37.9487 124.014 37.6482C123.275 37.0179 123.384 36.3101 124.268 36.0683C124.782 35.9659 125.311 35.9742 125.821 36.0926C126.331 36.211 126.81 36.4368 127.225 36.7549C127.666 37.1191 137.849 45.7941 122.467 56.5863C108.624 66.3003 111.567 72.6413 111.601 72.7022C111.972 73.3804 111.377 73.923 110.271 73.9157C109.165 73.9084 107.967 73.3532 107.595 72.6757C107.516 72.5324 106.626 70.8066 107.416 67.8714Z" fill="#3F3D56"/>
<path d="M88.4272 82.2822C88.1298 82.2822 87.8352 82.2238 87.5604 82.1102C87.2856 81.9967 87.0359 81.8302 86.8256 81.6204C86.6152 81.4106 86.4484 81.1615 86.3346 80.8873C86.2207 80.6131 86.1622 80.3193 86.1622 80.0225V70.2306C86.1622 69.6313 86.4008 69.0566 86.8256 68.6328C87.2504 68.209 87.8265 67.9709 88.4272 67.9709C89.028 67.9709 89.6041 68.209 90.0289 68.6328C90.4537 69.0566 90.6923 69.6313 90.6923 70.2306V80.0225C90.6923 80.3193 90.6337 80.6131 90.5199 80.8873C90.4061 81.1615 90.2392 81.4106 90.0289 81.6204C89.8186 81.8302 89.5689 81.9967 89.294 82.1102C89.0192 82.2238 88.7247 82.2822 88.4272 82.2822Z" fill="#3F3D56"/>
<path d="M90.4133 59.0358C90.2889 59.3054 90.1126 59.5479 89.8943 59.7495C89.6761 59.9511 89.4201 60.1078 89.1411 60.2107C88.8621 60.3137 88.5656 60.3607 88.2683 60.3493C87.9711 60.3379 87.679 60.2682 87.4088 60.1441L78.492 56.0514C77.9469 55.8005 77.5239 55.344 77.316 54.7821C77.1081 54.2203 77.1323 53.5991 77.3832 53.0551C77.6341 52.511 78.0913 52.0886 78.6542 51.8805C79.2171 51.6725 79.8398 51.696 80.3855 51.9457L89.3023 56.0385C89.5725 56.1625 89.8156 56.3384 90.0177 56.5562C90.2197 56.7739 90.3769 57.0292 90.48 57.3076C90.5832 57.5859 90.6304 57.8818 90.6189 58.1783C90.6075 58.4748 90.5376 58.7662 90.4133 59.0358Z" fill="#3F3D56"/>
<path d="M104.562 59.0358C104.686 59.3054 104.863 59.5479 105.081 59.7495C105.299 59.9511 105.555 60.1078 105.834 60.2107C106.113 60.3137 106.41 60.3608 106.707 60.3493C107.004 60.3379 107.296 60.2682 107.566 60.1441L116.483 56.0514C117.029 55.8009 117.453 55.3444 117.661 54.7823C117.869 54.2202 117.845 53.5985 117.594 53.0541C117.343 52.5096 116.885 52.087 116.322 51.8792C115.759 51.6713 115.135 51.6952 114.59 51.9457L105.673 56.0385C105.403 56.1625 105.16 56.3384 104.957 56.5562C104.755 56.7739 104.598 57.0293 104.495 57.3076C104.392 57.5859 104.345 57.8818 104.356 58.1783C104.368 58.4748 104.438 58.7662 104.562 59.0358Z" fill="#3F3D56"/>
<path d="M106.548 82.2822C106.845 82.2822 107.14 82.2238 107.415 82.1102C107.689 81.9967 107.939 81.8302 108.149 81.6204C108.36 81.4106 108.527 81.1615 108.64 80.8873C108.754 80.6131 108.813 80.3193 108.813 80.0225V70.2306C108.813 69.6313 108.574 69.0566 108.149 68.6328C107.725 68.209 107.149 67.9709 106.548 67.9709C105.947 67.9709 105.371 68.209 104.946 68.6328C104.521 69.0566 104.283 69.6313 104.283 70.2306V80.0225C104.283 80.3193 104.341 80.6131 104.455 80.8873C104.569 81.1615 104.736 81.4106 104.946 81.6204C105.156 81.8302 105.406 81.9967 105.681 82.1102C105.956 82.2238 106.25 82.2822 106.548 82.2822Z" fill="#3F3D56"/>
<path d="M116.014 18.8894C116.209 18.6434 116.351 18.3589 116.428 18.0545C116.506 17.7501 116.518 17.4327 116.463 17.1234L115.23 9.88852L113.998 2.65366C113.931 2.26302 113.763 1.89675 113.509 1.59166C113.256 1.28656 112.926 1.05339 112.554 0.915582C112.182 0.777772 111.779 0.740179 111.388 0.806582C110.996 0.872984 110.629 1.04104 110.323 1.29387L104.659 5.97636L101.247 8.7974C98.971 8.39368 96.6448 8.35869 94.3579 8.69377L91.0708 5.97636L85.4066 1.29387C85.1008 1.04104 84.7337 0.872989 84.3421 0.806587C83.9506 0.740184 83.5484 0.777777 83.176 0.915587C82.8036 1.0534 82.4741 1.28656 82.2207 1.59166C81.9673 1.89676 81.7988 2.26303 81.7323 2.65366L80.4995 9.88853L79.2667 17.1234C79.2009 17.5036 79.2349 17.8944 79.3654 18.2577C77.2528 21.4887 76.0465 25.2254 75.8721 29.0792C75.6977 32.9329 76.5615 36.7629 78.3737 40.1707C80.1859 43.5785 82.8802 46.4396 86.1765 48.4565C89.4728 50.4734 93.2506 51.5723 97.1169 51.6389C100.983 51.7056 104.797 50.7375 108.161 48.8354C111.525 46.9334 114.317 44.1668 116.246 40.8235C118.175 37.4802 119.171 33.6823 119.13 29.8248C119.089 25.9674 118.013 22.1913 116.014 18.8894Z" fill="#3F3D56"/>
<path d="M84.8391 4.25867C84.7047 4.25886 84.5715 4.28298 84.4457 4.3299C84.2607 4.39709 84.0969 4.51221 83.9713 4.66344C83.8456 4.81467 83.7626 4.99655 83.7307 5.19039L82.2358 13.964C82.2029 14.1574 82.2215 14.3561 82.2899 14.54C82.3583 14.7239 82.4741 14.8867 82.6255 15.0118C82.7769 15.137 82.9587 15.2202 83.1525 15.2531C83.3464 15.2859 83.5455 15.2673 83.7299 15.1991L92.0936 12.1038C92.278 12.0356 92.4411 11.9201 92.5665 11.7691C92.692 11.6181 92.7754 11.4368 92.8083 11.2434C92.8413 11.05 92.8226 10.8514 92.7543 10.6675C92.6859 10.4836 92.5702 10.3209 92.4188 10.1957L92.4187 10.1955L85.55 4.51722C85.3507 4.35065 85.0991 4.25915 84.8391 4.25867Z" fill="#E6E6E6"/>
<path d="M110.891 4.25867C110.631 4.25915 110.379 4.35065 110.18 4.51722L103.311 10.1957C103.16 10.3209 103.044 10.4836 102.976 10.6675C102.908 10.8514 102.889 11.05 102.922 11.2434C102.955 11.4368 103.038 11.6181 103.164 11.7691C103.289 11.9201 103.452 12.0356 103.637 12.1038L112 15.1991C112.185 15.2673 112.384 15.2859 112.578 15.2531C112.771 15.2202 112.953 15.137 113.105 15.0118C113.256 14.8867 113.372 14.7239 113.44 14.54C113.509 14.3561 113.527 14.1574 113.494 13.964L111.999 5.19039C111.968 4.99655 111.885 4.81467 111.759 4.66344C111.633 4.51221 111.469 4.39709 111.284 4.3299C111.159 4.28298 111.025 4.25886 110.891 4.25867Z" fill="#E6E6E6"/>
<path d="M97.4875 36.0844C99.1554 36.0844 100.508 34.7355 100.508 33.0715C100.508 31.4075 99.1554 30.0586 97.4875 30.0586C95.8195 30.0586 94.4674 31.4075 94.4674 33.0715C94.4674 34.7355 95.8195 36.0844 97.4875 36.0844Z" fill="#E6E6E6"/>
<path d="M97.4875 32.3182C98.5995 32.3182 99.5009 31.981 99.5009 31.565C99.5009 31.149 98.5995 30.8118 97.4875 30.8118C96.3756 30.8118 95.4741 31.149 95.4741 31.565C95.4741 31.981 96.3756 32.3182 97.4875 32.3182Z" fill="#3F3D56"/>
<path d="M95.9774 34.8291H98.7458V38.2186C98.7458 38.4 98.71 38.5795 98.6405 38.7471C98.5709 38.9146 98.4689 39.0668 98.3404 39.1951C98.2119 39.3233 98.0593 39.425 97.8913 39.4944C97.7234 39.5638 97.5434 39.5995 97.3616 39.5995C96.9945 39.5995 96.6424 39.454 96.3828 39.1951C96.1232 38.9361 95.9774 38.5849 95.9774 38.2186V34.8291H95.9774Z" fill="#FF6584"/>
<path d="M97.6556 0.654419C97.5105 0.954746 97.3695 1.25833 97.2369 1.56811C95.675 5.20208 95.1482 9.19547 95.7147 13.1088C95.998 12.6987 96.2958 12.2714 96.5987 11.8394C95.95 8.08355 96.3148 4.22315 97.6556 0.654419Z" fill="#3F3D56"/>
<path d="M99.9207 3.41638C99.7756 3.71671 99.6346 4.02029 99.502 4.33007C97.9401 7.96405 97.4133 11.9574 97.9797 15.8708C98.2631 15.4607 98.5609 15.0334 98.8638 14.6014C98.2151 10.8455 98.5799 6.98512 99.9207 3.41638Z" fill="#3F3D56"/>
<path d="M106.904 57.6365L106.585 53.5882L106.266 49.5398C106.249 49.3213 106.174 49.1111 106.05 48.9303C105.925 48.7496 105.755 48.6048 105.557 48.5104C105.358 48.416 105.139 48.3753 104.92 48.3925C104.7 48.4097 104.49 48.4841 104.309 48.6083L100.954 50.9082L98.5041 52.5876C98.3475 52.4047 98.153 52.2578 97.9341 52.1572C97.7152 52.0565 97.477 52.0043 97.2359 52.0043C96.9948 52.0043 96.7566 52.0565 96.5377 52.1572C96.3187 52.2578 96.1243 52.4047 95.9677 52.5876L93.518 50.9082L90.1632 48.6083C89.9821 48.4841 89.7714 48.4097 89.5523 48.3925C89.3332 48.3753 89.1134 48.416 88.915 48.5104C88.7167 48.6048 88.5467 48.7496 88.4222 48.9303C88.2978 49.111 88.2232 49.3212 88.2059 49.5398L87.8869 53.5881L87.5678 57.6364C87.5505 57.855 87.5913 58.0743 87.6859 58.2722C87.7806 58.4701 87.9257 58.6396 88.1069 58.7638C88.288 58.888 88.4987 58.9624 88.7178 58.9796C88.9369 58.9968 89.1567 58.9561 89.3551 58.8617L93.0289 57.1132L96.0475 55.6766C96.2028 55.8336 96.3879 55.9583 96.5919 56.0434C96.7959 56.1284 97.0148 56.1723 97.2359 56.1723C97.457 56.1723 97.6759 56.1284 97.8799 56.0434C98.0839 55.9583 98.269 55.8336 98.4243 55.6766L101.443 57.1132L105.117 58.8617C105.315 58.9561 105.535 58.9968 105.754 58.9796C105.973 58.9624 106.184 58.888 106.365 58.7638C106.546 58.6396 106.691 58.4701 106.786 58.2722C106.881 58.0743 106.921 57.8551 106.904 57.6365Z" fill="#6C63FF"/>
<path d="M93.4608 30.5608C93.8778 30.5608 94.2158 30.2235 94.2158 29.8075C94.2158 29.3916 93.8778 29.0543 93.4608 29.0543C93.0438 29.0543 92.7058 29.3916 92.7058 29.8075C92.7058 30.2235 93.0438 30.5608 93.4608 30.5608Z" fill="#E6E6E6"/>
<path d="M101.514 30.5608C101.931 30.5608 102.269 30.2235 102.269 29.8075C102.269 29.3916 101.931 29.0543 101.514 29.0543C101.097 29.0543 100.759 29.3916 100.759 29.8075C100.759 30.2235 101.097 30.5608 101.514 30.5608Z" fill="#E6E6E6"/>
<path d="M32.6429 66.3752C30.5241 63.8875 26.0542 60.9664 16.6376 59.3465C0.214162 56.5201 4.48765 46.5664 4.67723 46.1444C5.07499 45.2591 4.67275 44.666 3.77017 44.8248C3.26217 44.9514 2.78717 45.1849 2.37703 45.5096C1.96688 45.8344 1.63106 46.2428 1.39208 46.7076C1.14939 47.2252 -4.33316 59.4128 14.1986 62.6006C30.8772 65.4709 30.9367 72.4586 30.9323 72.528C30.8879 73.2993 31.6583 73.5358 32.6548 73.0571C33.6512 72.5784 34.4959 71.5652 34.5417 70.794C34.5509 70.631 34.6158 68.691 32.6429 66.3752Z" fill="#3F3D56"/>
<path d="M54.0155 82.6278C54.313 82.6278 54.6075 82.5693 54.8824 82.4558C55.1572 82.3422 55.4069 82.1758 55.6172 81.9659C55.8275 81.7561 55.9944 81.507 56.1082 81.2328C56.222 80.9587 56.2806 80.6648 56.2806 80.3681V70.5762C56.2799 69.9773 56.0409 69.4033 55.6162 68.9801C55.1915 68.5569 54.6158 68.3192 54.0155 68.3192C53.4153 68.3192 52.8396 68.5569 52.4149 68.9801C51.9902 69.4033 51.7512 69.9773 51.7505 70.5762V80.3681C51.7505 80.6648 51.8091 80.9587 51.9229 81.2328C52.0367 81.507 52.2036 81.7561 52.4139 81.9659C52.6242 82.1758 52.8739 82.3422 53.1487 82.4558C53.4235 82.5693 53.7181 82.6278 54.0155 82.6278Z" fill="#3F3D56"/>
<path d="M52.0295 59.3813C52.1538 59.6509 52.3302 59.8934 52.5484 60.095C52.7667 60.2966 53.0226 60.4533 53.3016 60.5562C53.5806 60.6591 53.8772 60.7062 54.1744 60.6948C54.4717 60.6834 54.7637 60.6137 55.034 60.4896L63.9508 56.3969C64.2213 56.273 64.4647 56.0972 64.6671 55.8795C64.8695 55.6618 65.0269 55.4064 65.1303 55.1279C65.2337 54.8494 65.281 54.5534 65.2696 54.2566C65.2582 53.9599 65.1883 53.6683 65.0639 53.3986C64.9395 53.1288 64.763 52.8861 64.5446 52.6845C64.3261 52.4828 64.0699 52.3261 63.7907 52.2232C63.5114 52.1204 63.2146 52.0735 62.9172 52.0851C62.6198 52.0968 62.3276 52.1668 62.0573 52.2912L53.1405 56.384C52.8703 56.508 52.6272 56.6839 52.4251 56.9017C52.223 57.1194 52.0659 57.3747 51.9627 57.6531C51.8596 57.9314 51.8124 58.2273 51.8238 58.5238C51.8353 58.8203 51.9052 59.1117 52.0295 59.3813Z" fill="#3F3D56"/>
<path d="M37.8809 59.3813C37.7566 59.6509 37.5803 59.8934 37.362 60.095C37.1437 60.2966 36.8878 60.4533 36.6088 60.5562C36.3298 60.6591 36.0332 60.7062 35.736 60.6948C35.4388 60.6834 35.1467 60.6137 34.8765 60.4896L25.9597 56.3969C25.6891 56.273 25.4457 56.0972 25.2433 55.8795C25.0409 55.6618 24.8836 55.4064 24.7802 55.1279C24.6768 54.8494 24.6294 54.5534 24.6408 54.2566C24.6522 53.9599 24.7221 53.6683 24.8465 53.3986C24.9709 53.1288 25.1474 52.8861 25.3659 52.6845C25.5844 52.4828 25.8405 52.3261 26.1198 52.2232C26.399 52.1204 26.6958 52.0735 26.9932 52.0851C27.2907 52.0968 27.5829 52.1668 27.8531 52.2912L36.7699 56.384C37.0402 56.508 37.2833 56.6839 37.4853 56.9017C37.6874 57.1194 37.8445 57.3747 37.9477 57.6531C38.0509 57.9314 38.0981 58.2273 38.0866 58.5238C38.0751 58.8203 38.0052 59.1117 37.8809 59.3813Z" fill="#3F3D56"/>
<path d="M35.895 82.6278C35.5976 82.6278 35.303 82.5693 35.0282 82.4558C34.7534 82.3422 34.5037 82.1758 34.2933 81.9659C34.083 81.7561 33.9162 81.507 33.8023 81.2328C33.6885 80.9587 33.6299 80.6648 33.6299 80.3681V70.5762C33.6307 69.9773 33.8696 69.4033 34.2943 68.9801C34.719 68.5569 35.2947 68.3192 35.895 68.3192C36.4953 68.3192 37.071 68.5569 37.4957 68.9801C37.9204 69.4033 38.1594 69.9773 38.1601 70.5762V80.3681C38.1601 80.6648 38.1015 80.9587 37.9877 81.2328C37.8738 81.507 37.707 81.7561 37.4967 81.9659C37.2863 82.1758 37.0366 82.3422 36.7618 82.4558C36.487 82.5693 36.1925 82.6278 35.895 82.6278Z" fill="#3F3D56"/>
<path d="M63.0774 18.6033C63.2079 18.24 63.2419 17.8492 63.176 17.469L61.9433 10.2341L60.7105 2.99925C60.644 2.60862 60.4755 2.24235 60.2221 1.93725C59.9686 1.63215 59.6392 1.39899 59.2668 1.26118C58.8944 1.12337 58.4922 1.08577 58.1007 1.15217C57.7091 1.21857 57.342 1.38664 57.0361 1.63946L51.372 6.32195L48.0849 9.03936C45.7979 8.70427 43.4718 8.73927 41.196 9.14298L37.7836 6.32194L32.1194 1.63945C31.8136 1.38662 31.4465 1.21857 31.0549 1.15216C30.6633 1.08576 30.2611 1.12335 29.8888 1.26116C29.5164 1.39897 29.1869 1.63214 28.9335 1.93724C28.6801 2.24234 28.5116 2.60861 28.445 2.99924L27.2123 10.2341L25.9795 17.469C25.9251 17.7783 25.937 18.0957 26.0145 18.4001C26.092 18.7045 26.2333 18.989 26.4291 19.235C24.427 22.5376 23.3487 26.3152 23.3065 30.1746C23.2643 34.034 24.2597 37.8342 26.189 41.1797C28.1183 44.5251 30.9111 47.2936 34.2768 49.1971C37.6425 51.1005 41.4579 52.0692 45.3262 52.0026C49.1945 51.9359 52.9741 50.8362 56.2719 48.8179C59.5696 46.7996 62.2649 43.9365 64.0772 40.5266C65.8895 37.1166 66.7527 33.2844 66.5769 29.4288C66.401 25.5731 65.1926 21.8349 63.0774 18.6033H63.0774Z" fill="#3F3D56"/>
<path d="M56.8929 4.8628L50.0242 10.541L50.0241 10.5413C49.8727 10.6665 49.757 10.8292 49.6886 11.0131C49.6203 11.197 49.6016 11.3956 49.6346 11.589C49.6675 11.7823 49.7509 11.9637 49.8764 12.1147C50.0018 12.2657 50.1649 12.3811 50.3492 12.4494L58.713 15.5446C58.8973 15.6129 59.0965 15.6315 59.2903 15.5986C59.4842 15.5658 59.666 15.4826 59.8174 15.3574C59.9688 15.2322 60.0845 15.0695 60.1529 14.8856C60.2213 14.7017 60.24 14.503 60.207 14.3096L58.7121 5.53597C58.6803 5.34213 58.5972 5.16025 58.4716 5.00902C58.3459 4.85779 58.1822 4.74267 57.9972 4.67548C57.8713 4.62856 57.7381 4.60444 57.6038 4.60425C57.3438 4.60473 57.0922 4.69623 56.8929 4.8628Z" fill="#E6E6E6"/>
<path d="M31.1585 4.67548C30.9734 4.74267 30.8097 4.85779 30.684 5.00902C30.5584 5.16025 30.4754 5.34213 30.4435 5.53597L28.9486 14.3096C28.9156 14.503 28.9343 14.7017 29.0027 14.8856C29.0711 15.0695 29.1868 15.2322 29.3382 15.3574C29.4896 15.4826 29.6714 15.5658 29.8653 15.5986C30.0592 15.6315 30.2583 15.6129 30.4426 15.5446L38.8064 12.4494C38.9907 12.3811 39.1538 12.2657 39.2793 12.1147C39.4047 11.9636 39.4881 11.7823 39.5211 11.589C39.554 11.3956 39.5354 11.197 39.467 11.0131C39.3986 10.8292 39.2829 10.6665 39.1315 10.5413L32.2627 4.8628C32.0634 4.69623 31.8118 4.60473 31.5518 4.60425C31.4175 4.60444 31.2843 4.62856 31.1585 4.67548Z" fill="#E6E6E6"/>
<path d="M44.9553 36.43C46.6232 36.43 47.9754 35.0811 47.9754 33.4171C47.9754 31.7531 46.6232 30.4042 44.9553 30.4042C43.2873 30.4042 41.9352 31.7531 41.9352 33.4171C41.9352 35.0811 43.2873 36.43 44.9553 36.43Z" fill="#E6E6E6"/>
<path d="M44.9553 32.6638C46.0672 32.6638 46.9687 32.3266 46.9687 31.9106C46.9687 31.4946 46.0672 31.1573 44.9553 31.1573C43.8433 31.1573 42.9419 31.4946 42.9419 31.9106C42.9419 32.3266 43.8433 32.6638 44.9553 32.6638Z" fill="#3F3D56"/>
<path d="M45.0811 39.9449C44.8993 39.9449 44.7194 39.9092 44.5514 39.8398C44.3835 39.7704 44.2309 39.6687 44.1023 39.5405C43.9738 39.4123 43.8718 39.26 43.8023 39.0925C43.7327 38.9249 43.6969 38.7454 43.6969 38.564V35.1745H46.4653L46.4653 38.564C46.4653 38.7454 46.4295 38.9249 46.36 39.0925C46.2904 39.26 46.1885 39.4123 46.0599 39.5405C45.9314 39.6687 45.7788 39.7704 45.6108 39.8398C45.4429 39.9092 45.2629 39.9449 45.0811 39.9449Z" fill="#FF6584"/>
<path d="M44.7872 1C44.9324 1.30033 45.0733 1.6039 45.2059 1.91368C46.7678 5.54766 47.2945 9.54105 46.7281 13.4544C46.4448 13.0443 46.147 12.617 45.8441 12.185C46.4928 8.42913 46.128 4.56873 44.7872 1Z" fill="#3F3D56"/>
<path d="M42.5222 3.76184C42.6673 4.06217 42.8083 4.36574 42.9408 4.67553C44.5027 8.3095 45.0295 12.3029 44.4631 16.2163C44.1797 15.8061 43.8819 15.3788 43.579 14.9468C44.2277 11.191 43.863 7.33057 42.5222 3.76184Z" fill="#3F3D56"/>
<path d="M35.5388 14.0439L35.8579 9.99561L36.1769 5.9473C36.1942 5.72872 36.2688 5.51851 36.3932 5.3378C36.5177 5.1571 36.6877 5.01226 36.886 4.91786C37.0844 4.82345 37.3042 4.7828 37.5233 4.79999C37.7424 4.81718 37.9531 4.8916 38.1342 5.01578L41.489 7.31562L43.9388 8.99503C44.0953 8.81215 44.2898 8.6653 44.5087 8.56461C44.7276 8.46392 44.9658 8.41179 45.2069 8.41179C45.448 8.41179 45.6862 8.46392 45.9051 8.56461C46.1241 8.6653 46.3185 8.81215 46.4751 8.99503L48.9249 7.31562L52.2796 5.01578C52.4608 4.8916 52.6715 4.81718 52.8906 4.79999C53.1097 4.7828 53.3295 4.82345 53.5278 4.91786C53.7262 5.01226 53.8961 5.1571 54.0206 5.3378C54.1451 5.51851 54.2197 5.72872 54.2369 5.9473L54.556 9.99561L54.8751 14.0439C54.8923 14.2625 54.8516 14.4818 54.7569 14.6796C54.6623 14.8775 54.5171 15.0471 54.336 15.1713C54.1549 15.2954 53.9441 15.3699 53.725 15.3871C53.5059 15.4042 53.2862 15.3636 53.0878 15.2692L49.4139 13.5207L46.3953 12.0841C46.24 12.2411 46.0549 12.3657 45.8509 12.4508C45.6469 12.5359 45.428 12.5797 45.2069 12.5797C44.9858 12.5797 44.7669 12.5359 44.5629 12.4508C44.3589 12.3657 44.1738 12.2411 44.0185 12.0841L40.9999 13.5207L37.3261 15.2692C37.1277 15.3636 36.9079 15.4043 36.6888 15.3871C36.4697 15.3699 36.259 15.2955 36.0779 15.1713C35.8967 15.0471 35.7515 14.8775 35.6569 14.6796C35.5623 14.4818 35.5215 14.2625 35.5388 14.0439Z" fill="#6C63FF"/>
<path d="M48.2271 30.153C48.2271 30.569 48.5651 30.153 48.9821 30.153C49.3991 30.153 49.7371 30.569 49.7371 30.153C49.7367 29.9535 49.657 29.7623 49.5154 29.6214C49.3739 29.4805 49.1821 29.4014 48.9821 29.4014C48.7821 29.4014 48.5903 29.4805 48.4487 29.6214C48.3072 29.7623 48.2275 29.9535 48.2271 30.153Z" fill="#E6E6E6"/>
<path d="M41.6835 30.153C41.6835 30.569 41.3455 30.153 40.9285 30.153C40.5115 30.153 40.1735 30.569 40.1735 30.153C40.1739 29.9535 40.2536 29.7623 40.3952 29.6214C40.5367 29.4805 40.7285 29.4014 40.9285 29.4014C41.1285 29.4014 41.3203 29.4805 41.4618 29.6214C41.6034 29.7623 41.6831 29.9535 41.6835 30.153Z" fill="#E6E6E6"/>
<path d="M44.4016 80.3631C44.5853 80.3656 44.769 80.3681 44.9553 80.3681C45.1415 80.3681 45.3252 80.3656 45.5089 80.3631C55.2487 80.1421 62.3082 74.0711 60.5112 67.7013L56.1296 52.1623L55.0222 48.2305L35.3917 48.5644L34.1987 52.4109L29.5025 67.5507C27.5143 73.9556 34.5737 80.1421 44.4016 80.3631Z" fill="#3F3D56"/>
<path opacity="0.2" d="M34.1987 52.4109C37.5459 54.3196 41.3429 55.3029 45.198 55.2592C49.0532 55.2155 52.8268 54.1464 56.1296 52.1623L55.0222 48.2305L35.3917 48.5644L34.1987 52.4109Z" fill="black"/>
</svg>
