<svg width="291" height="150" viewBox="0 0 291 150" fill="none" xmlns="http://www.w3.org/2000/svg">
<path d="M145.5 134.073C225.857 134.073 291 132.255 291 130.013C291 127.771 225.857 125.953 145.5 125.953C65.1426 125.953 0 127.771 0 130.013C0 132.255 65.1426 134.073 145.5 134.073Z" fill="#E6E6E6"/>
<path d="M223.041 86.0175C222.858 86.02 222.674 86.0225 222.488 86.0225C222.301 86.0225 222.118 86.02 221.934 86.0175C212.194 85.7966 205.135 79.7256 206.932 73.3558L211.313 57.8168L212.421 53.8849L232.051 54.2189L233.244 58.0653L237.94 73.2052C239.929 79.6101 232.869 85.7966 223.041 86.0175Z" fill="#3F3D56"/>
<path opacity="0.2" d="M233.244 58.0653C229.897 59.9741 226.1 60.9573 222.245 60.9137C218.39 60.87 214.616 59.8009 211.313 57.8168L212.421 53.8849L232.051 54.2189L233.244 58.0653Z" fill="black"/>
<path d="M232.416 73.8714C233.264 70.7185 236.051 66.1702 243.867 60.6863C257.498 51.1209 249.367 43.9487 249.014 43.6482C248.275 43.0179 248.384 42.3101 249.268 42.0683C249.782 41.9659 250.311 41.9742 250.821 42.0926C251.331 42.211 251.81 42.4368 252.225 42.7549C252.666 43.1191 262.849 51.7941 247.467 62.5863C233.624 72.3003 236.567 78.6413 236.601 78.7022C236.972 79.3804 236.377 79.923 235.271 79.9157C234.165 79.9084 232.967 79.3532 232.595 78.6757C232.516 78.5324 231.626 76.8066 232.416 73.8714Z" fill="#3F3D56"/>
<path d="M213.427 88.2822C213.13 88.2822 212.835 88.2237 212.56 88.1102C212.286 87.9966 212.036 87.8302 211.826 87.6203C211.615 87.4105 211.448 87.1614 211.335 86.8872C211.221 86.6131 211.162 86.3192 211.162 86.0225V76.2306C211.162 75.6313 211.401 75.0565 211.826 74.6327C212.25 74.209 212.827 73.9709 213.427 73.9709C214.028 73.9709 214.604 74.209 215.029 74.6327C215.454 75.0565 215.692 75.6313 215.692 76.2306V86.0225C215.692 86.3192 215.634 86.6131 215.52 86.8872C215.406 87.1614 215.239 87.4105 215.029 87.6203C214.819 87.8302 214.569 87.9966 214.294 88.1102C214.019 88.2237 213.725 88.2822 213.427 88.2822Z" fill="#3F3D56"/>
<path d="M215.413 65.0358C215.289 65.3054 215.113 65.5479 214.894 65.7495C214.676 65.9511 214.42 66.1078 214.141 66.2107C213.862 66.3137 213.566 66.3607 213.268 66.3493C212.971 66.3379 212.679 66.2682 212.409 66.1441L203.492 62.0514C202.947 61.8005 202.524 61.344 202.316 60.7821C202.108 60.2203 202.132 59.5991 202.383 59.0551C202.634 58.511 203.091 58.0886 203.654 57.8805C204.217 57.6725 204.84 57.696 205.386 57.9457L214.302 62.0385C214.573 62.1625 214.816 62.3384 215.018 62.5562C215.22 62.7739 215.377 63.0292 215.48 63.3076C215.583 63.5859 215.63 63.8818 215.619 64.1783C215.608 64.4748 215.538 64.7662 215.413 65.0358Z" fill="#3F3D56"/>
<path d="M229.562 65.0358C229.686 65.3054 229.863 65.5479 230.081 65.7495C230.299 65.9511 230.555 66.1078 230.834 66.2107C231.113 66.3137 231.41 66.3608 231.707 66.3493C232.004 66.3379 232.296 66.2682 232.566 66.1441L241.483 62.0514C242.029 61.8009 242.453 61.3444 242.661 60.7823C242.869 60.2202 242.845 59.5985 242.594 59.0541C242.343 58.5096 241.885 58.087 241.322 57.8792C240.759 57.6713 240.135 57.6952 239.59 57.9457L230.673 62.0385C230.403 62.1625 230.16 62.3384 229.957 62.5562C229.755 62.7739 229.598 63.0293 229.495 63.3076C229.392 63.5859 229.345 63.8818 229.356 64.1783C229.368 64.4748 229.438 64.7662 229.562 65.0358Z" fill="#3F3D56"/>
<path d="M231.548 88.2822C231.845 88.2822 232.14 88.2237 232.415 88.1102C232.689 87.9966 232.939 87.8302 233.149 87.6203C233.36 87.4105 233.527 87.1614 233.64 86.8872C233.754 86.6131 233.813 86.3192 233.813 86.0225V76.2306C233.813 75.6313 233.574 75.0565 233.149 74.6327C232.725 74.209 232.149 73.9709 231.548 73.9709C230.947 73.9709 230.371 74.209 229.946 74.6327C229.521 75.0565 229.283 75.6313 229.283 76.2306V86.0225C229.283 86.3192 229.341 86.6131 229.455 86.8872C229.569 87.1614 229.736 87.4105 229.946 87.6203C230.156 87.8302 230.406 87.9966 230.681 88.1102C230.956 88.2237 231.25 88.2822 231.548 88.2822Z" fill="#3F3D56"/>
<path d="M241.014 24.8894C241.21 24.6435 241.351 24.3589 241.428 24.0545C241.506 23.7501 241.518 23.4328 241.463 23.1235L240.231 15.8886L238.998 8.65372C238.931 8.26309 238.763 7.89681 238.509 7.59172C238.256 7.28662 237.926 7.05345 237.554 6.91564C237.182 6.77783 236.779 6.74024 236.388 6.80664C235.996 6.87305 235.629 7.0411 235.323 7.29393L229.659 11.9764L226.247 14.7975C223.971 14.3937 221.645 14.3588 219.358 14.6938L216.071 11.9764L210.407 7.29393C210.101 7.04111 209.734 6.87305 209.342 6.80665C208.951 6.74025 208.548 6.77784 208.176 6.91565C207.804 7.05346 207.474 7.28663 207.221 7.59172C206.967 7.89682 206.799 8.26309 206.732 8.65372L205.5 15.8886L204.267 23.1235C204.201 23.5037 204.235 23.8945 204.365 24.2577C202.253 27.4887 201.047 31.2255 200.872 35.0792C200.698 38.933 201.562 42.7629 203.374 46.1707C205.186 49.5785 207.88 52.4397 211.177 54.4565C214.473 56.4734 218.251 57.5723 222.117 57.639C225.983 57.7056 229.797 56.7376 233.161 54.8355C236.525 52.9334 239.317 50.1669 241.246 46.8235C243.175 43.4802 244.171 39.6823 244.13 35.8249C244.089 31.9674 243.013 28.1913 241.014 24.8894Z" fill="#3F3D56"/>
<path d="M209.839 10.2587C209.705 10.2589 209.572 10.283 209.446 10.3299C209.261 10.3971 209.097 10.5122 208.971 10.6634C208.846 10.8147 208.763 10.9966 208.731 11.1904L207.236 19.964C207.203 20.1574 207.222 20.3561 207.29 20.54C207.358 20.7239 207.474 20.8867 207.625 21.0118C207.777 21.137 207.959 21.2202 208.153 21.2531C208.346 21.2859 208.546 21.2673 208.73 21.1991L217.094 18.1038C217.278 18.0356 217.441 17.9201 217.567 17.7691C217.692 17.6181 217.775 17.4368 217.808 17.2434C217.841 17.05 217.823 16.8514 217.754 16.6675C217.686 16.4836 217.57 16.3209 217.419 16.1957L217.419 16.1955L210.55 10.5172C210.351 10.3506 210.099 10.2591 209.839 10.2587Z" fill="#E6E6E6"/>
<path d="M235.891 10.2587C235.631 10.2592 235.379 10.3507 235.18 10.5172L228.311 16.1957C228.16 16.3209 228.044 16.4836 227.976 16.6675C227.908 16.8514 227.889 17.05 227.922 17.2434C227.955 17.4368 228.038 17.6181 228.164 17.7691C228.289 17.9201 228.452 18.0356 228.637 18.1038L237 21.1991C237.185 21.2673 237.384 21.2859 237.578 21.2531C237.771 21.2202 237.953 21.137 238.105 21.0118C238.256 20.8867 238.372 20.7239 238.44 20.54C238.509 20.3561 238.527 20.1574 238.494 19.964L236.999 11.1904C236.968 10.9966 236.885 10.8147 236.759 10.6634C236.633 10.5122 236.469 10.3971 236.284 10.3299C236.159 10.283 236.025 10.2589 235.891 10.2587Z" fill="#E6E6E6"/>
<path d="M222.487 42.0844C224.155 42.0844 225.508 40.7355 225.508 39.0715C225.508 37.4075 224.155 36.0586 222.487 36.0586C220.82 36.0586 219.467 37.4075 219.467 39.0715C219.467 40.7355 220.82 42.0844 222.487 42.0844Z" fill="#E6E6E6"/>
<path d="M222.488 38.3183C223.599 38.3183 224.501 37.981 224.501 37.5651C224.501 37.1491 223.599 36.8118 222.488 36.8118C221.376 36.8118 220.474 37.1491 220.474 37.5651C220.474 37.981 221.376 38.3183 222.488 38.3183Z" fill="#3F3D56"/>
<path d="M220.977 40.829H223.746V44.2186C223.746 44.3999 223.71 44.5795 223.64 44.747C223.571 44.9145 223.469 45.0668 223.34 45.195C223.212 45.3232 223.059 45.425 222.891 45.4944C222.723 45.5637 222.543 45.5995 222.362 45.5995C221.995 45.5995 221.642 45.454 221.383 45.195C221.123 44.936 220.977 44.5848 220.977 44.2186V40.829H220.977Z" fill="#FF6584"/>
<path d="M222.656 6.65448C222.51 6.95481 222.37 7.25839 222.237 7.56817C220.675 11.2021 220.148 15.1955 220.715 19.1089C220.998 18.6988 221.296 18.2715 221.599 17.8394C220.95 14.0836 221.315 10.2232 222.656 6.65448Z" fill="#3F3D56"/>
<path d="M224.921 9.41632C224.775 9.71665 224.635 10.0202 224.502 10.33C222.94 13.964 222.413 17.9574 222.98 21.8708C223.263 21.4606 223.561 21.0333 223.864 20.6013C223.215 16.8455 223.58 12.9851 224.921 9.41632Z" fill="#3F3D56"/>
<path d="M231.904 63.6365L231.585 59.5882L231.266 55.5398C231.249 55.3213 231.174 55.1111 231.05 54.9303C230.925 54.7496 230.755 54.6048 230.557 54.5104C230.358 54.416 230.139 54.3753 229.92 54.3925C229.7 54.4097 229.49 54.4841 229.309 54.6083L225.954 56.9082L223.504 58.5876C223.348 58.4047 223.153 58.2578 222.934 58.1572C222.715 58.0565 222.477 58.0043 222.236 58.0043C221.995 58.0043 221.757 58.0565 221.538 58.1572C221.319 58.2578 221.124 58.4047 220.968 58.5876L218.518 56.9082L215.163 54.6083C214.982 54.4841 214.771 54.4097 214.552 54.3925C214.333 54.3753 214.113 54.416 213.915 54.5104C213.717 54.6048 213.547 54.7496 213.422 54.9303C213.298 55.111 213.223 55.3212 213.206 55.5398L212.887 59.5881L212.568 63.6364C212.551 63.855 212.591 64.0743 212.686 64.2722C212.781 64.4701 212.926 64.6396 213.107 64.7638C213.288 64.888 213.499 64.9624 213.718 64.9796C213.937 64.9968 214.157 64.9561 214.355 64.8617L218.029 63.1132L221.048 61.6766C221.203 61.8336 221.388 61.9583 221.592 62.0434C221.796 62.1284 222.015 62.1723 222.236 62.1723C222.457 62.1723 222.676 62.1284 222.88 62.0434C223.084 61.9583 223.269 61.8336 223.424 61.6766L226.443 63.1132L230.117 64.8617C230.315 64.9561 230.535 64.9968 230.754 64.9796C230.973 64.9624 231.184 64.888 231.365 64.7638C231.546 64.6396 231.691 64.4701 231.786 64.2722C231.881 64.0743 231.921 63.8551 231.904 63.6365Z" fill="#6C63FF"/>
<path d="M218.461 36.5608C218.878 36.5608 219.216 36.2236 219.216 35.8076C219.216 35.3916 218.878 35.0544 218.461 35.0544C218.044 35.0544 217.706 35.3916 217.706 35.8076C217.706 36.2236 218.044 36.5608 218.461 36.5608Z" fill="#E6E6E6"/>
<path d="M226.514 36.5608C226.931 36.5608 227.269 36.2236 227.269 35.8076C227.269 35.3916 226.931 35.0544 226.514 35.0544C226.097 35.0544 225.759 35.3916 225.759 35.8076C225.759 36.2236 226.097 36.5608 226.514 36.5608Z" fill="#E6E6E6"/>
<path d="M76.4016 79.3631C76.5854 79.3656 76.7691 79.3681 76.9553 79.3681C77.1416 79.3681 77.3253 79.3656 77.509 79.3631C87.2488 79.1421 94.3082 73.0711 92.5113 66.7013L88.1296 51.1623L87.0223 47.2305L67.3917 47.5644L66.1988 51.4109L61.5025 66.5507C59.5143 72.9556 66.5738 79.1421 76.4016 79.3631Z" fill="#3F3D56"/>
<path opacity="0.2" d="M66.1987 51.4109C69.5459 53.3196 73.3429 54.3029 77.198 54.2592C81.0532 54.2155 84.8268 53.1464 88.1296 51.1623L87.0222 47.2305L67.3917 47.5644L66.1987 51.4109Z" fill="black"/>
<path d="M64.643 65.3752C62.5242 62.8875 58.0543 59.9664 48.6376 58.3465C32.2142 55.5201 36.4877 45.5664 36.6773 45.1443C37.075 44.2591 36.6728 43.666 35.7702 43.8247C35.2622 43.9514 34.7872 44.1849 34.3771 44.5096C33.9669 44.8343 33.6311 45.2428 33.3921 45.7076C33.1495 46.2252 27.6669 58.4127 46.1987 61.6005C62.8773 64.4708 62.9368 71.4585 62.9324 71.5279C62.888 72.2992 63.6584 72.5358 64.6548 72.057C65.6513 71.5783 66.496 70.5651 66.5417 69.7939C66.551 69.631 66.6159 67.6909 64.643 65.3752Z" fill="#3F3D56"/>
<path d="M86.0155 81.6278C86.313 81.6278 86.6075 81.5693 86.8824 81.4558C87.1572 81.3422 87.4069 81.1758 87.6172 80.9659C87.8275 80.7561 87.9944 80.507 88.1082 80.2328C88.222 79.9587 88.2806 79.6648 88.2806 79.3681V69.5762C88.2799 68.9773 88.0409 68.4033 87.6162 67.9801C87.1915 67.5569 86.6158 67.3192 86.0155 67.3192C85.4153 67.3192 84.8396 67.5569 84.4149 67.9801C83.9902 68.4033 83.7512 68.9773 83.7505 69.5762V79.3681C83.7505 79.6648 83.8091 79.9587 83.9229 80.2328C84.0367 80.507 84.2036 80.7561 84.4139 80.9659C84.6242 81.1758 84.8739 81.3422 85.1487 81.4558C85.4235 81.5693 85.7181 81.6278 86.0155 81.6278Z" fill="#3F3D56"/>
<path d="M84.0295 58.3813C84.1538 58.6509 84.3302 58.8934 84.5484 59.095C84.7667 59.2966 85.0226 59.4533 85.3016 59.5562C85.5806 59.6591 85.8772 59.7062 86.1744 59.6948C86.4717 59.6834 86.7637 59.6137 87.034 59.4896L95.9508 55.3969C96.2213 55.273 96.4647 55.0972 96.6671 54.8795C96.8695 54.6618 97.0269 54.4064 97.1303 54.1279C97.2337 53.8494 97.281 53.5534 97.2696 53.2566C97.2582 52.9599 97.1883 52.6683 97.0639 52.3986C96.9395 52.1288 96.763 51.8861 96.5446 51.6845C96.3261 51.4828 96.0699 51.3261 95.7907 51.2232C95.5114 51.1204 95.2146 51.0735 94.9172 51.0851C94.6198 51.0968 94.3276 51.1668 94.0573 51.2912L85.1405 55.384C84.8703 55.508 84.6272 55.6839 84.4251 55.9017C84.223 56.1194 84.0659 56.3747 83.9627 56.6531C83.8596 56.9314 83.8124 57.2273 83.8238 57.5238C83.8353 57.8203 83.9052 58.1117 84.0295 58.3813Z" fill="#3F3D56"/>
<path d="M69.8809 58.3813C69.7566 58.6509 69.5803 58.8934 69.362 59.095C69.1437 59.2966 68.8878 59.4533 68.6088 59.5562C68.3298 59.6591 68.0332 59.7062 67.736 59.6948C67.4388 59.6834 67.1467 59.6137 66.8765 59.4896L57.9597 55.3969C57.6891 55.273 57.4457 55.0972 57.2433 54.8795C57.0409 54.6618 56.8836 54.4064 56.7802 54.1279C56.6768 53.8494 56.6294 53.5534 56.6408 53.2566C56.6522 52.9599 56.7221 52.6683 56.8465 52.3986C56.9709 52.1288 57.1474 51.8861 57.3659 51.6845C57.5844 51.4828 57.8405 51.3261 58.1198 51.2232C58.399 51.1204 58.6958 51.0735 58.9932 51.0851C59.2907 51.0968 59.5829 51.1668 59.8531 51.2912L68.7699 55.384C69.0402 55.508 69.2833 55.6839 69.4853 55.9017C69.6874 56.1194 69.8445 56.3747 69.9477 56.6531C70.0509 56.9314 70.0981 57.2273 70.0866 57.5238C70.0751 57.8203 70.0052 58.1117 69.8809 58.3813Z" fill="#3F3D56"/>
<path d="M67.8951 81.6278C67.5976 81.6278 67.3031 81.5693 67.0283 81.4558C66.7534 81.3422 66.5037 81.1758 66.2934 80.9659C66.0831 80.7561 65.9162 80.507 65.8024 80.2328C65.6886 79.9587 65.63 79.6648 65.63 79.3681V69.5762C65.6307 68.9773 65.8697 68.4033 66.2944 67.9801C66.7191 67.5569 67.2948 67.3192 67.8951 67.3192C68.4953 67.3192 69.071 67.5569 69.4958 67.9801C69.9205 68.4033 70.1594 68.9773 70.1601 69.5762V79.3681C70.1601 79.6648 70.1016 79.9587 69.9877 80.2328C69.8739 80.507 69.7071 80.7561 69.4967 80.9659C69.2864 81.1758 69.0367 81.3422 68.7619 81.4558C68.4871 81.5693 68.1925 81.6278 67.8951 81.6278Z" fill="#3F3D56"/>
<path d="M95.0774 17.6032C95.2079 17.2399 95.2419 16.8492 95.1761 16.4689L93.9433 9.23406L92.7106 1.99919C92.644 1.60856 92.4756 1.24229 92.2221 0.93719C91.9687 0.632094 91.6392 0.398927 91.2669 0.261117C90.8945 0.123307 90.4923 0.0857094 90.1007 0.152112C89.7092 0.218514 89.342 0.386574 89.0362 0.639396L83.372 5.32189L80.0849 8.0393C77.798 7.70421 75.4719 7.7392 73.1961 8.14292L69.7836 5.32188L64.1195 0.639386C63.8137 0.386564 63.4465 0.218504 63.055 0.152102C62.6634 0.085699 62.2612 0.123292 61.8888 0.261102C61.5164 0.398912 61.187 0.632083 60.9335 0.93718C60.6801 1.24228 60.5117 1.60855 60.4451 1.99918L59.2123 9.23406L57.9796 16.4689C57.9252 16.7783 57.9371 17.0956 58.0146 17.4C58.0921 17.7044 58.2334 17.989 58.4291 18.2349C56.4271 21.5376 55.3488 25.3152 55.3066 29.1746C55.2644 33.034 56.2597 36.8341 58.1891 40.1796C60.1184 43.5251 62.9112 46.2936 66.2769 48.197C69.6425 50.1004 73.458 51.0692 77.3263 51.0025C81.1945 50.9358 84.9742 49.8361 88.2719 47.8178C91.5697 45.7996 94.2649 42.9365 96.0773 39.5265C97.8896 36.1166 98.7528 32.2844 98.5769 28.4287C98.4011 24.5731 97.1927 20.8349 95.0774 17.6032H95.0774Z" fill="#3F3D56"/>
<path d="M88.8928 3.86274L82.0241 9.54099L82.024 9.54123C81.8726 9.66639 81.7569 9.8291 81.6886 10.013C81.6202 10.1969 81.6015 10.3955 81.6345 10.5889C81.6675 10.7823 81.7508 10.9636 81.8763 11.1146C82.0017 11.2657 82.1648 11.3811 82.3492 11.4493L90.7129 14.5446C90.8973 14.6128 91.0964 14.6314 91.2903 14.5986C91.4841 14.5657 91.6659 14.4825 91.8173 14.3573C91.9687 14.2322 92.0845 14.0695 92.1529 13.8855C92.2213 13.7016 92.2399 13.503 92.207 13.3096L90.7121 4.53591C90.6802 4.34207 90.5972 4.16019 90.4715 4.00896C90.3459 3.85773 90.1821 3.74261 89.9971 3.67542C89.8713 3.6285 89.7381 3.60438 89.6037 3.60419C89.3437 3.60467 89.0921 3.69617 88.8928 3.86274Z" fill="#E6E6E6"/>
<path d="M63.1585 3.67542C62.9734 3.74261 62.8097 3.85773 62.684 4.00896C62.5584 4.16019 62.4754 4.34207 62.4435 4.53591L60.9486 13.3096C60.9156 13.503 60.9343 13.7016 61.0027 13.8855C61.0711 14.0695 61.1868 14.2322 61.3382 14.3573C61.4896 14.4825 61.6714 14.5657 61.8653 14.5986C62.0592 14.6314 62.2583 14.6128 62.4426 14.5446L70.8064 11.4493C70.9907 11.3811 71.1538 11.2656 71.2793 11.1146C71.4047 10.9636 71.4881 10.7823 71.5211 10.5889C71.554 10.3955 71.5354 10.1969 71.467 10.013C71.3986 9.8291 71.2829 9.66639 71.1315 9.54123L64.2627 3.86274C64.0634 3.69617 63.8118 3.60467 63.5518 3.60419C63.4175 3.60438 63.2843 3.6285 63.1585 3.67542Z" fill="#E6E6E6"/>
<path d="M76.9553 35.43C78.6232 35.43 79.9754 34.0811 79.9754 32.4171C79.9754 30.7531 78.6232 29.4042 76.9553 29.4042C75.2873 29.4042 73.9352 30.7531 73.9352 32.4171C73.9352 34.0811 75.2873 35.43 76.9553 35.43Z" fill="#E6E6E6"/>
<path d="M76.9553 31.6638C78.0672 31.6638 78.9687 31.3266 78.9687 30.9106C78.9687 30.4946 78.0672 30.1573 76.9553 30.1573C75.8433 30.1573 74.9419 30.4946 74.9419 30.9106C74.9419 31.3266 75.8433 31.6638 76.9553 31.6638Z" fill="#3F3D56"/>
<path d="M77.0811 38.945C76.8993 38.945 76.7194 38.9093 76.5514 38.8399C76.3835 38.7705 76.2309 38.6688 76.1023 38.5405C75.9738 38.4123 75.8718 38.2601 75.8023 38.0925C75.7327 37.925 75.6969 37.7454 75.6969 37.5641V34.1746H78.4653V37.5641C78.4653 37.7454 78.4295 37.925 78.36 38.0925C78.2904 38.2601 78.1885 38.4123 78.0599 38.5405C77.9314 38.6688 77.7788 38.7705 77.6108 38.8399C77.4429 38.9093 77.2629 38.945 77.0811 38.945Z" fill="#FF6584"/>
<path d="M76.7872 0C76.9324 0.300327 77.0733 0.603902 77.2059 0.913685C78.7678 4.54766 79.2945 8.54105 78.7281 12.4544C78.4448 12.0443 78.147 11.617 77.8441 11.185C78.4928 7.42913 78.128 3.56873 76.7872 0Z" fill="#3F3D56"/>
<path d="M74.5222 2.76184C74.6674 3.06217 74.8083 3.36574 74.9409 3.67553C76.5028 7.3095 77.0295 11.3029 76.4631 15.2163C76.1798 14.8061 75.882 14.3788 75.5791 13.9468C76.2278 10.191 75.863 6.33057 74.5222 2.76184Z" fill="#3F3D56"/>
<path d="M67.5388 13.0439L67.8579 8.99555L68.1769 4.94724C68.1942 4.72866 68.2688 4.51845 68.3932 4.33774C68.5177 4.15704 68.6877 4.0122 68.886 3.9178C69.0844 3.82339 69.3042 3.78274 69.5233 3.79993C69.7424 3.81712 69.9531 3.89154 70.1342 4.01572L73.489 6.31556L75.9388 7.99497C76.0953 7.81209 76.2898 7.66524 76.5087 7.56455C76.7276 7.46386 76.9658 7.41173 77.2069 7.41173C77.448 7.41173 77.6862 7.46386 77.9051 7.56455C78.1241 7.66524 78.3185 7.81209 78.4751 7.99497L80.9249 6.31556L84.2796 4.01572C84.4608 3.89154 84.6715 3.81712 84.8906 3.79993C85.1097 3.78274 85.3295 3.82339 85.5278 3.9178C85.7262 4.0122 85.8961 4.15704 86.0206 4.33774C86.1451 4.51845 86.2197 4.72866 86.2369 4.94724L86.556 8.99555L86.8751 13.0439C86.8923 13.2624 86.8516 13.4817 86.7569 13.6796C86.6623 13.8775 86.5171 14.047 86.336 14.1712C86.1549 14.2954 85.9441 14.3698 85.725 14.387C85.5059 14.4042 85.2862 14.3635 85.0878 14.2691L81.4139 12.5206L78.3953 11.084C78.24 11.241 78.0549 11.3657 77.8509 11.4508C77.6469 11.5358 77.428 11.5797 77.2069 11.5797C76.9858 11.5797 76.7669 11.5358 76.5629 11.4508C76.3589 11.3657 76.1738 11.241 76.0185 11.084L72.9999 12.5206L69.3261 14.2691C69.1277 14.3635 68.9079 14.4042 68.6888 14.387C68.4697 14.3698 68.259 14.2954 68.0779 14.1712C67.8967 14.047 67.7515 13.8775 67.6569 13.6796C67.5623 13.4817 67.5215 13.2624 67.5388 13.0439Z" fill="#6C63FF"/>
<path d="M80.2271 29.153C80.2271 29.569 80.5651 29.153 80.9821 29.153C81.3991 29.153 81.7371 29.569 81.7371 29.153C81.7367 28.9535 81.657 28.7623 81.5154 28.6214C81.3739 28.4805 81.1821 28.4014 80.9821 28.4014C80.7821 28.4014 80.5903 28.4805 80.4487 28.6214C80.3072 28.7623 80.2275 28.9535 80.2271 29.153Z" fill="#E6E6E6"/>
<path d="M73.6835 29.153C73.6835 29.569 73.3455 29.153 72.9285 29.153C72.5115 29.153 72.1735 29.569 72.1735 29.153C72.1739 28.9535 72.2536 28.7623 72.3952 28.6214C72.5367 28.4805 72.7285 28.4014 72.9285 28.4014C73.1285 28.4014 73.3203 28.4805 73.4618 28.6214C73.6034 28.7623 73.6831 28.9535 73.6835 29.153Z" fill="#E6E6E6"/>
<path d="M157.451 86.024V81.2361H133.455V81.5355V86.024V124.626V129.414H138.254H157.451V124.626H138.254V86.024H157.451Z" fill="#3F3D56"/>
<path d="M169.149 81.2362V129.414H193.145V81.2362H169.149ZM188.346 124.626H173.948V86.024H188.346V124.626Z" fill="#6C63FF"/>
<path d="M102.559 124.626V81.5356H97.7601V124.626V129.414H102.559H121.756V124.626H102.559Z" fill="#6C63FF"/>
<path d="M86.9621 86.024V81.2361H62.9659V81.5355V86.024V102.781V107.569V124.626V129.414H67.7652H86.9621V124.626H67.7652V107.569H86.9621V102.781H67.7652V86.024H86.9621Z" fill="#3F3D56"/>
<path d="M274.732 86.024V81.2361H250.736V81.5355V86.024V102.781V107.569V124.626V129.414H255.535H274.732V124.626H255.535V107.569H274.732V102.781H255.535V86.024H274.732Z" fill="#6C63FF"/>
<path d="M46.7684 81.5355V121.106L34.1144 108.482L34.0856 108.511L34.0588 108.485L21.1227 121.39V81.386H16.3234V129.264H21.1227V128.161L34.0879 115.226L46.7684 127.877V129.414H51.5677V81.5355H46.7684Z" fill="#3F3D56"/>
<path d="M234.838 81.5355V82.6385L221.873 95.573L209.192 82.9226V81.386H204.393V129.264H209.192V89.6935L221.846 102.317L221.875 102.288L221.902 102.315L234.838 89.4094V129.414H239.637V81.5355H234.838Z" fill="#3F3D56"/>
<path d="M109.672 52.0418C111.299 52.0418 112.618 50.7261 112.618 49.1031C112.618 47.48 111.299 46.1643 109.672 46.1643C108.045 46.1643 106.727 47.48 106.727 49.1031C106.727 50.7261 108.045 52.0418 109.672 52.0418Z" fill="#6C63FF"/>
<path d="M37.0103 84.6945C38.6372 84.6945 39.9561 83.3788 39.9561 81.7558C39.9561 80.1327 38.6372 78.817 37.0103 78.817C35.3834 78.817 34.0646 80.1327 34.0646 81.7558C34.0646 83.3788 35.3834 84.6945 37.0103 84.6945Z" fill="#6C63FF"/>
<path d="M95.2708 150C96.8977 150 98.2166 148.684 98.2166 147.061C98.2166 145.438 96.8977 144.122 95.2708 144.122C93.6439 144.122 92.3251 145.438 92.3251 147.061C92.3251 148.684 93.6439 150 95.2708 150Z" fill="#6C63FF"/>
<path d="M169.242 60.858C170.869 60.858 172.188 59.5423 172.188 57.9193C172.188 56.2963 170.869 54.9805 169.242 54.9805C167.615 54.9805 166.296 56.2963 166.296 57.9193C166.296 59.5423 167.615 60.858 169.242 60.858Z" fill="#6C63FF"/>
<path d="M255.978 147.388C257.605 147.388 258.924 146.072 258.924 144.449C258.924 142.826 257.605 141.51 255.978 141.51C254.351 141.51 253.032 142.826 253.032 144.449C253.032 146.072 254.351 147.388 255.978 147.388Z" fill="#6C63FF"/>
<path d="M258.924 70.3273C260.551 70.3273 261.87 69.0116 261.87 67.3886C261.87 65.7656 260.551 64.4498 258.924 64.4498C257.297 64.4498 255.978 65.7656 255.978 67.3886C255.978 69.0116 257.297 70.3273 258.924 70.3273Z" fill="#6C63FF"/>
<path d="M221.611 123.225C223.238 123.225 224.557 121.909 224.557 120.286C224.557 118.663 223.238 117.347 221.611 117.347C219.984 117.347 218.665 118.663 218.665 120.286C218.665 121.909 219.984 123.225 221.611 123.225Z" fill="#6C63FF"/>
</svg>
